<svg width="200" height="200" viewBox="0 0 200 200" xmlns="http://www.w3.org/2000/svg">
  <!-- Drop shadow -->
  <defs>
    <filter id="shadow" x="-20%" y="-20%" width="140%" height="140%">
      <feDropShadow dx="2" dy="2" stdDeviation="3" flood-color="#000000" flood-opacity="0.2"/>
    </filter>
  </defs>
  
  <!-- Main circular border -->
  <circle cx="100" cy="100" r="95" fill="#1a4d2e" stroke="#ffffff" stroke-width="5" filter="url(#shadow)"/>
  
  <!-- White background -->
  <circle cx="100" cy="100" r="87.5" fill="#ffffff"/>
  
  <!-- Wave-like elements - bottom layer (dark teal) -->
  <path d="M 20 140 Q 50 130 80 135 T 140 140 T 180 135 L 180 200 L 20 200 Z" fill="#0f4c3a"/>
  
  <!-- Wave-like elements - middle layer (medium teal) -->
  <path d="M 25 150 Q 55 140 85 145 T 145 150 T 175 145 L 175 200 L 25 200 Z" fill="#1a7a6b"/>
  
  <!-- Wave-like elements - top layer (lighter green) -->
  <path d="M 30 160 Q 60 150 90 155 T 150 160 T 170 155 L 170 200 L 30 200 Z" fill="#2d9d8a"/>
  
  <!-- Bird silhouette in upper right -->
  <path d="M 140 70 Q 150 65 155 70 Q 160 75 155 80 Q 150 85 140 80 Q 135 75 140 70 Z" fill="#000000"/>
  <path d="M 145 75 Q 150 70 155 75 Q 150 80 145 75 Z" fill="#000000"/>
</svg> 